<?xml version="1.0" encoding="UTF-8"?>
<svg xmlns="http://www.w3.org/2000/svg" viewBox="0 0 172.74 200.07">
  <style>
    :root {
    color-scheme: light dark;
    }
    .icon-fill {
    fill: black;
    }
    @media (prefers-color-scheme: dark) {
    .icon-fill {
    fill: white;
    }
    }
  </style>
  <path class="icon-fill" d="M137.55,22c-29.33-29.33-76.89-29.33-106.22,0C2,51.33,2,98.89,31.33,128.22c19.62,19.62,50.56,29.28,77.69,24.77,2.65-.44,5.1-1.66,7-3.56l42.74-42.73c1.9-1.9,3.12-4.35,3.56-7,4.51-27.13-5.15-58.07-24.77-77.69ZM118,108.67c-18.58,18.58-48.71,18.58-67.29,0-18.58-18.58-18.58-48.71,0-67.29,18.58-18.58,48.71-18.58,67.29,0,18.58,18.58,18.58,48.71,0,67.29ZM46.36,78.83c-.2-2.03,1.41-3.8,3.45-3.8h69.1c2.04,0,3.65,1.77,3.45,3.8-1.91,19.31-18.2,34.39-38,34.39s-36.1-15.08-38-34.39Z"/>
  <g>
    <path class="icon-fill" d="M.04,176.37l19.15.15-.04,4.72-6.69-.05-.14,17.62-5.83-.05.14-17.62-6.63-.05.04-4.72Z"/>
    <path class="icon-fill" d="M22.82,176.55l5.83.05-.18,22.34-5.83-.05.18-22.34Z"/>
    <path class="icon-fill" d="M32.98,176.63l5.83.05-.14,17.43,9.46.08-.04,4.91-15.29-.12.18-22.34Z"/>
    <path class="icon-fill" d="M48.98,176.75l19.15.15-.04,4.72-6.69-.05-.14,17.62-5.83-.05.14-17.62-6.63-.05.04-4.72Z"/>
    <path class="icon-fill" d="M84.92,181.02c-.66-.45-1.35-.81-2.08-1.08-.73-.27-1.44-.47-2.13-.61-.69-.13-1.33-.2-1.93-.21-1.44-.01-2.6.27-3.46.83-.87.57-1.3,1.35-1.31,2.35,0,.87.22,1.57.67,2.11.45.54,1.05.98,1.79,1.32.74.35,1.56.65,2.45.93.89.27,1.78.57,2.67.88s1.7.71,2.44,1.2c.74.48,1.33,1.1,1.77,1.86.44.76.66,1.72.65,2.89,0,1.23-.36,2.3-1.05,3.19-.69.9-1.64,1.59-2.85,2.08-1.21.49-2.62.73-4.21.72-1.08,0-2.14-.16-3.18-.46-1.04-.3-2.01-.7-2.92-1.22-.91-.52-1.71-1.11-2.41-1.77l1.16-2.06c.69.66,1.45,1.23,2.28,1.71.83.47,1.68.84,2.56,1.1s1.73.4,2.56.4c1.61.01,2.89-.3,3.83-.96.94-.65,1.41-1.54,1.42-2.67,0-.87-.21-1.58-.65-2.14-.44-.56-1.03-1.01-1.77-1.35-.74-.34-1.56-.65-2.45-.91-.89-.26-1.79-.55-2.69-.86s-1.72-.7-2.46-1.17-1.33-1.07-1.77-1.81c-.44-.75-.66-1.69-.65-2.84,0-1.17.33-2.17.98-3.02.64-.84,1.55-1.5,2.73-1.97,1.17-.47,2.52-.7,4.05-.68,1.3.01,2.56.21,3.8.6s2.32.89,3.25,1.49l-1.1,2.13Z"/>
    <path class="icon-fill" d="M91.8,177.13l15.14.12-.02,2.23-12.59-.1-.06,7.65,11.25.09-.02,2.2-11.25-.09-.06,8.03,13,.1-.02,2.2-15.55-.12.18-22.3Z"/>
    <path class="icon-fill" d="M112.55,177.29l2.65.02,13.9,19.42-.67.22.16-19.53,2.52.02-.18,22.3-2.61-.02-13.9-19.39.67-.22-.16,19.5-2.55-.02.18-22.3Z"/>
    <path class="icon-fill" d="M150.47,181.54c-.66-.45-1.35-.81-2.08-1.08-.73-.27-1.44-.47-2.13-.61-.69-.13-1.33-.2-1.93-.21-1.44-.01-2.6.27-3.46.83-.86.57-1.3,1.35-1.31,2.35,0,.87.22,1.58.67,2.11.45.53,1.05.98,1.79,1.32s1.56.65,2.45.93c.89.27,1.78.57,2.67.88.89.31,1.7.71,2.44,1.2.74.48,1.33,1.1,1.77,1.86.44.76.66,1.72.65,2.89-.01,1.23-.36,2.3-1.05,3.19-.69.9-1.64,1.59-2.85,2.08-1.22.49-2.62.73-4.21.72-1.08,0-2.14-.16-3.18-.46-1.04-.29-2.01-.7-2.92-1.22s-1.71-1.11-2.41-1.77l1.16-2.06c.7.67,1.46,1.23,2.28,1.71.82.47,1.68.84,2.56,1.1.88.26,1.73.4,2.56.4,1.62.01,2.89-.31,3.83-.96s1.42-1.54,1.42-2.67c0-.87-.21-1.58-.65-2.14-.44-.56-1.03-1.01-1.78-1.35-.74-.35-1.56-.65-2.45-.91s-1.78-.55-2.69-.87c-.9-.31-1.72-.7-2.46-1.17-.74-.46-1.33-1.07-1.77-1.81-.44-.75-.66-1.69-.65-2.84.01-1.17.34-2.17.98-3.02.64-.84,1.55-1.5,2.72-1.97,1.17-.47,2.52-.7,4.05-.69,1.29.01,2.56.21,3.8.6,1.24.39,2.32.89,3.25,1.49l-1.1,2.13Z"/>
    <path class="icon-fill" d="M157.35,177.65l15.14.12-.02,2.23-12.59-.1-.06,7.65,11.25.09-.02,2.2-11.25-.09-.06,8.03,13,.1-.02,2.2-15.55-.12.18-22.3Z"/>
  </g>
</svg>
