<svg xmlns="http://www.w3.org/2000/svg" viewBox="0 0 154.08 154.08">
  <style>
    :root {
    color-scheme: light dark;
    }
    .icon-fill {
    fill: black;
    }
    @media (prefers-color-scheme: dark) {
    .icon-fill {
    fill: white;
    }
    }
  </style>
  <path class="icon-fill"
        d="M128.22,22c-29.33-29.33-76.89-29.33-106.22,0-29.33,29.33-29.33,76.89,0,106.22,19.62,19.62,50.56,29.28,77.69,24.77,2.65-.44,5.1-1.66,7-3.56l42.74-42.73c1.9-1.9,3.12-4.35,3.56-7,4.51-27.13-5.15-58.07-24.77-77.69ZM108.67,108.67c-18.58,18.58-48.71,18.58-67.29,0-18.58-18.58-18.58-48.71,0-67.29,18.58-18.58,48.71-18.58,67.29,0,18.58,18.58,18.58,48.71,0,67.29ZM37.02,78.83c-.2-2.03,1.41-3.8,3.45-3.8h69.1c2.04,0,3.65,1.77,3.45,3.8-1.91,19.31-18.2,34.39-38,34.39s-36.1-15.08-38-34.39Z"/>
</svg>
