<?xml version="1.0" encoding="UTF-8"?>
<svg xmlns="http://www.w3.org/2000/svg" viewBox="0 0 58.74 175.42">
  <path fill="currentColor"
        d="M51.06,0H7.68C3.45,0,0,3.45,0,7.68v161.05c0,3.69,3,6.69,6.7,6.69h45.36c3.69,0,6.69-3,6.69-6.69V7.68c0-4.23-3.45-7.68-7.68-7.68ZM50.28,156.36H8.47v-2.63h41.81v2.63ZM37.9,62.39v70.19h-17.06V62.39h17.06ZM20.85,42.61v-17.06h17.06v17.06h-17.06ZM50.28,52.87c-1.2-.76-2.54-1.32-4.07-1.32h-2.11v-28.7c0-2.68-2.18-4.86-4.86-4.86h-19.74c-2.68,0-4.86,2.17-4.86,4.86v28.7h-2.11c-1.53,0-2.87.56-4.07,1.33V11.91h41.81v40.96Z"/>
</svg>
